# xmcd
#
# Track frame offsets: 
#        150
#        24974
#        50529
#        76251
#        109520
#        128780
#        159265
#        181526
#        209576
#        232546
#        253141
#
# Disc length: 3721 seconds
#
# Revision: 0
# Processed by: cddbd v1.5.2PL0 Copyright (c) Steve Scherf et al.
# Submitted via: ExactAudioCopy v0.99pb5
#
DISCID=790e870b
DTITLE=Robert Penn - Blues N' My Soul
DYEAR=2010
DGENRE=Blues
TTITLE0=Keep On Steppin'
TTITLE1=I Should Quit You Baby
TTITLE2=Spend My Life With You
TTITLE3=Round About Midnight
TTITLE4=Blues For Jesse
TTITLE5=This Time I Feel The Blues
TTITLE6=A Sad Day
TTITLE7=Blues Ain't Always Loud And Noisy
TTITLE8=Nothing In The The Street Worth Losing You
TTITLE9=What's You're Name
TTITLE10=Spend My Life With You (Instrumental Reprise)
EXTD=
EXTT0=
EXTT1=
EXTT2=
EXTT3=
EXTT4=
EXTT5=
EXTT6=
EXTT7=
EXTT8=
EXTT9=
EXTT10=
PLAYORDER=
